# xmcd
#
# Track frame offsets: 
#        150
#        12951
#        26755
#        40224
#        55700
#        68612
#        81691
#        95662
#        109912
#        120651
#        134399
#        146865
#        161226
#        175866
#        189113
#        201635
#        214882
#        228463
#        241877
#        256907
#        271212
#        284737
#        296256
#        309503
#        323864
#
# Disc length: 4492 seconds
#
# Revision: 0
# Processed by: cddbd v1.5.2PL0 Copyright (c) Steve Scherf et al.
# Submitted via: ExactAudioCopy v1.3
#
DISCID=7f118a19
DTITLE=Various Artist - The Rough Guide to Country Blues
DYEAR=2019
DGENRE=Blues
TTITLE0=Skip James - Hard Time Killin' Floor Blues
TTITLE1=Blind Willie McTell - Georgia Rag
TTITLE2=Blind Willie Johnson - God Moves on the Water
TTITLE3=Tommy Johnson - Cool Drink of Water Blues
TTITLE4=Big Bill Broonzy - How You Want It Done?
TTITLE5=Robert Wilkins - That's No Way to Get Along
TTITLE6=Frank Stokes - I Got Mine
TTITLE7=Barbecue Bob - Honey You Don't Know My Mind
TTITLE8=Bukka White - Sic 'Em Dogs On
TTITLE9=Geeshie Wiley - Last Kind Words Blues
TTITLE10=Blind Blake - Come on Boys Let's Do That Messin' Around
TTITLE11=Charley Patton - A Spoonful Blues
TTITLE12=Mississippi Sheiks - Sitting on Top of the World
TTITLE13=Mississippi John Hurt - Ain't No Tellin'
TTITLE14=Blind Lemon Jefferson - Jack O'Diamonds (Take 2)
TTITLE15=Blind Boy Fuller - Mama Let Me Lay It on You
TTITLE16=Willie Brown - Future Blues
TTITLE17=Clarence Greene - Johnson City Blues
TTITLE18=Reverend Gary Davis - The Great Change in Me
TTITLE19=Son House - My Black Mama, Pt. 1
TTITLE20=Memphis Minnie and Kansas Joe - New Dirty Dozen
TTITLE21=Furry Lewis - Billy Lyons and Stack O'Lee
TTITLE22=Cannon's Jug Stompers - Walk Right In
TTITLE23=Dick Justice - Cocaine
TTITLE24=Leadbelly - Packin' Trunk Blues
EXTD=
EXTT0=
EXTT1=
EXTT2=
EXTT3=
EXTT4=
EXTT5=
EXTT6=
EXTT7=
EXTT8=
EXTT9=
EXTT10=
EXTT11=
EXTT12=
EXTT13=
EXTT14=
EXTT15=
EXTT16=
EXTT17=
EXTT18=
EXTT19=
EXTT20=
EXTT21=
EXTT22=
EXTT23=
EXTT24=
PLAYORDER=
